<svg id="Layer_1" data-name="Layer 1" xmlns="http://www.w3.org/2000/svg" xmlns:xlink="http://www.w3.org/1999/xlink" viewBox="0 0 149 117"><defs><style>.cls-1,.cls-2,.cls-6{fill:none;}.cls-2{clip-rule:evenodd;}.cls-3{clip-path:url(#clip-path);}.cls-4{clip-path:url(#clip-path-2);}.cls-5{fill:#c8ccd1;}.cls-6{stroke:#a2a9b1;stroke-miterlimit:10;stroke-width:2px;}.cls-7{clip-path:url(#clip-path-4);}.cls-8{isolation:isolate;}.cls-9{clip-path:url(#clip-path-6);}.cls-10{clip-path:url(#clip-path-7);}.cls-11{fill:#f5f5f5;}.cls-12{clip-path:url(#clip-path-8);}.cls-13{fill:#a2a9b1;}.cls-14{clip-path:url(#clip-path-10);}.cls-15{clip-path:url(#clip-path-12);}.cls-16{clip-path:url(#clip-path-14);}.cls-17{clip-path:url(#clip-path-17);}.cls-18{clip-path:url(#clip-path-19);}.cls-19{clip-path:url(#clip-path-20);}.cls-20{clip-path:url(#clip-path-21);}.cls-21{clip-path:url(#clip-path-22);}.cls-22{clip-path:url(#clip-path-23);}.cls-23{clip-path:url(#clip-path-24);}.cls-24{fill:#fff;}</style><clipPath id="clip-path" transform="translate(1.5 3.5)"><rect class="cls-1" x="4.5" y="1.5" width="123" height="88" rx="2"/></clipPath><clipPath id="clip-path-2" transform="translate(1.5 3.5)"><rect class="cls-1" x="0.5" y="0.5" width="143" height="109"/></clipPath><clipPath id="clip-path-4" transform="translate(1.5 3.5)"><rect class="cls-1" x="1.5" y="6.5" width="128" height="91" rx="2"/></clipPath><clipPath id="clip-path-6" transform="translate(1.5 3.5)"><polygon class="cls-1" points="-1.5 106.5 134.5 107.5 134.5 1.5 -1.5 0.5 -1.5 106.5"/></clipPath><clipPath id="clip-path-7" transform="translate(1.5 3.5)"><rect class="cls-1" x="0.5" y="5.5" width="129" height="92"/></clipPath><clipPath id="clip-path-8" transform="translate(1.5 3.5)"><ellipse class="cls-1" cx="22.5" cy="28" rx="12" ry="11.5"/></clipPath><clipPath id="clip-path-10" transform="translate(1.5 3.5)"><path class="cls-2" d="M87.12,51.5s22.17,14.58,27.16,9.21,0,7.79,0,7.79H70.5"/></clipPath><clipPath id="clip-path-12" transform="translate(1.5 3.5)"><path class="cls-2" d="M1.5,59.5A80.92,80.92,0,0,0,43.75,71.69c24.6,0,6,7.81,6,7.81H1.55"/></clipPath><clipPath id="clip-path-14" transform="translate(1.5 3.5)"><path class="cls-2" d="M88.45,56.88c-12,22.67,43.05-5.33,43.05-5.33v55H1.5V79.26S100.47,34.21,88.45,56.88Z"/></clipPath><clipPath id="clip-path-17" transform="translate(1.5 3.5)"><rect class="cls-1" x="1.5" y="6.5" width="128" height="92" rx="2"/></clipPath><clipPath id="clip-path-19" transform="translate(1.5 3.5)"><polygon class="cls-1" points="-6.5 107.5 139.5 108.5 139.5 -3.5 -6.5 -4.5 -6.5 107.5"/></clipPath><clipPath id="clip-path-20" transform="translate(1.5 3.5)"><rect class="cls-1" x="0.5" y="6.5" width="129" height="92"/></clipPath><clipPath id="clip-path-21" transform="translate(1.5 3.5)"><circle class="cls-1" cx="124.5" cy="90.5" r="18"/></clipPath><clipPath id="clip-path-22" transform="translate(1.5 3.5)"><path class="cls-1" d="M126.54,93.67a6,6,0,1,1,1.13-1.13l5.19,5.19-1.13,1.13Zm-3.64-.37a4.4,4.4,0,1,0-4.4-4.4A4.4,4.4,0,0,0,122.9,93.3Z"/></clipPath><clipPath id="clip-path-23" transform="translate(1.5 3.5)"><rect class="cls-1" x="111.5" y="77.5" width="27" height="27"/></clipPath><clipPath id="clip-path-24" transform="translate(1.5 3.5)"><rect class="cls-1" x="116.5" y="82.5" width="17" height="17"/></clipPath></defs><title>no_results_found_illustration</title><g class="cls-3"><g class="cls-4"><rect class="cls-5" x="1" width="133" height="98"/></g></g><g class="cls-4"><rect class="cls-6" x="6" y="5" width="123" height="88" rx="2"/></g><g class="cls-7"><g class="cls-4"><g class="cls-8"><g class="cls-9"><g class="cls-10"><polygon class="cls-11" points="0 4 136 5 136 106 0 105 0 4"/></g><g class="cls-12"><g class="cls-10"><rect class="cls-13" x="7" y="15" width="34" height="33"/></g></g><g class="cls-14"><g class="cls-10"><rect class="cls-13" x="67" y="50" width="56" height="27"/></g></g><g class="cls-15"><g class="cls-10"><polygon class="cls-13" points="0 57 63 58 63 88 0 87 0 57"/></g></g><g class="cls-16"><g class="cls-10"><polygon class="cls-5" points="0 48 138 49 138 115 0 114 0 48"/></g></g></g></g></g></g><g class="cls-4"><rect class="cls-6" x="3" y="10" width="128" height="92" rx="2"/></g><g class="cls-17"><g class="cls-4"><g class="cls-8"><g class="cls-18"><g class="cls-19"><rect class="cls-6" x="3" y="10" width="128" height="92" rx="2"/></g></g></g></g></g><g class="cls-20"><rect class="cls-5" x="103" y="71" width="46" height="46"/></g><circle class="cls-6" cx="126" cy="94" r="18"/><g class="cls-21"><g class="cls-8"><g class="cls-22"><g class="cls-23"><rect class="cls-24" x="113.4" y="81.4" width="25.96" height="25.96"/></g></g></g></g></svg>