<svg id="Layer_1" data-name="Layer 1" xmlns="http://www.w3.org/2000/svg" viewBox="0 0 128 94.43"><defs><style>.cls-1{fill:#a2a9b1;}.cls-1,.cls-2{stroke:#a2a9b1;stroke-width:2px;}.cls-1,.cls-2,.cls-4{fill-rule:evenodd;}.cls-2{fill:#c8ccd1;}.cls-3,.cls-4{fill:#fff;}</style></defs><title>pre_search_illustration</title><g id="pre_search_illustration" data-name="pre search illustration"><path id="Combined-Shape" class="cls-1" d="M98,1a1,1,0,0,1,.71.29A1,1,0,0,1,99,2h0V62.67a1,1,0,0,1-.29.71,1,1,0,0,1-.71.29H26.8L12.86,73.11V63.67H2a1,1,0,0,1-1-1H1V2a1,1,0,0,1,.29-.72A1,1,0,0,1,2,1H98Z"/><path id="Combined-Shape-2" data-name="Combined-Shape" class="cls-2" d="M95,29a32,32,0,0,1,26.62,49.76V92.55l-8.09-5.46A32,32,0,1,1,95,29Z"/><circle id="Oval-5" class="cls-3" cx="83" cy="61" r="3"/><circle id="Oval-5-2" data-name="Oval-5" class="cls-3" cx="95" cy="61" r="3"/><circle id="Oval-5-3" data-name="Oval-5" class="cls-3" cx="107" cy="61" r="3"/><g id="Mask"><path id="path-1" class="cls-4" d="M50.5,17A16.5,16.5,0,1,0,67,33.5,16.5,16.5,0,0,0,50.5,17Zm1.65,26.4h-3.3V40.1h3.3Zm0-6.6h-3.3V23.6h3.3Z"/></g></g></svg>